<svg xmlns="http://www.w3.org/2000/svg" viewBox="0 0 64 64">
  <g transform="rotate(-8 32 32)">
    <g transform="translate(12.08 39.10) scale(0.05476 -0.05476)" fill="#221f19"
       stroke="#ffffff" stroke-width="127" paint-order="stroke" stroke-linejoin="round">
      <path d="M256 19Q197 19 146.5 41.5Q96 64 65.5 116.5Q35 169 35 254Q35 333 66.5 386.5Q98 440 155.0 467.5Q212 495 287 495Q341 495 387.5 480.5Q434 466 460 449Q478 437 489.0 420.5Q500 404 500 379V65H357V362Q346 368 330.5 373.0Q315 378 292 378Q244 378 213.5 348.0Q183 318 183 254Q183 184 211.5 157.5Q240 131 283 131Q316 131 338.0 142.5Q360 154 376 168L380 50Q359 37 329.0 28.0Q299 19 256 19ZM360 5V98H500V1Q500 -69 467.5 -113.0Q435 -157 379.5 -178.0Q324 -199 255 -199Q203 -199 162.5 -190.0Q122 -181 101 -167Q67 -145 67 -105Q67 -84 75.5 -67.5Q84 -51 96 -43Q123 -59 160.0 -70.5Q197 -82 238 -82Q294 -82 327.0 -61.5Q360 -41 360 5Z"/>
    </g>
    <circle cx="48.2" cy="38.1" r="4.6" fill="#ff4318"
      stroke="#ffffff" stroke-width="3.2" paint-order="stroke"/>
  </g>
</svg>
